# xmcd
#
# Track frame offsets: 
#        150
#        12391
#        26894
#        30867
#        42183
#        54088
#        65202
#        75332
#        85729
#        104431
#        113532
#        126681
#        138880
#        160135
#        182448
#        195462
#        242223
#        258523
#
# Disc length: 3874 seconds
#
# Revision: 0
# Processed by: cddbd v1.5.2PL0 Copyright (c) Steve Scherf et al.
# Submitted via: ExactAudioCopy v0.95b3
#
DISCID=e50f2012
DTITLE=The Beatles  - The BRG White Album Remix D 3  FLAC
DYEAR=1900
DGENRE=
TTITLE0=Back In The USSR [More piano]
TTITLE1=Ob-La-Di, Ob-La-Da
TTITLE2=Wild Honey Pie
TTITLE3=Wild Honey Pie
TTITLE4=Bang Bang Shoot Shoot
TTITLE5=Martha My Dear [Pixels of Tritec mix from 5.1]
TTITLE6=I'm So Tired
TTITLE7=Blackbird [Pixels of Tritec remix]
TTITLE8=Don't Pass Me By
TTITLE9=Why Don't We Do It In The Road?
TTITLE10=Julia
TTITLE11=Another Birthday
TTITLE12=Yer Monkey
TTITLE13=Helter Skelter Blisters
TTITLE14=Savoy Truffle
TTITLE15=Revolution 1-9
TTITLE16=Good Night [Version 5]
TTITLE17=Hey Jude [More Orch]]
EXTD=
EXTT0=
EXTT1=
EXTT2=
EXTT3=
EXTT4=
EXTT5=
EXTT6=
EXTT7=
EXTT8=
EXTT9=
EXTT10=
EXTT11=
EXTT12=
EXTT13=
EXTT14=
EXTT15=
EXTT16=
EXTT17=
PLAYORDER=
